<svg width="200" height="200" viewBox="0 0 200 200" fill="none" xmlns="http://www.w3.org/2000/svg">
<rect width="200" height="200" fill="#F078F2"/>
<path d="M51.4091 50.1818V120H43.3636V50.1818H51.4091ZM66.1449 120V67.6364H74.1903V120H66.1449ZM70.2358 58.9091C68.6676 58.9091 67.3153 58.375 66.179 57.3068C65.0653 56.2386 64.5085 54.9545 64.5085 53.4545C64.5085 51.9545 65.0653 50.6705 66.179 49.6023C67.3153 48.5341 68.6676 48 70.2358 48C71.804 48 73.1449 48.5341 74.2585 49.6023C75.3949 50.6705 75.9631 51.9545 75.9631 53.4545C75.9631 54.9545 75.3949 56.2386 74.2585 57.3068C73.1449 58.375 71.804 58.9091 70.2358 58.9091ZM88.9261 120V67.6364H96.6989V75.8182H97.3807C98.4716 73.0227 100.233 70.8523 102.665 69.3068C105.097 67.7386 108.017 66.9545 111.426 66.9545C114.881 66.9545 117.756 67.7386 120.051 69.3068C122.369 70.8523 124.176 73.0227 125.472 75.8182H126.017C127.358 73.1136 129.369 70.9659 132.051 69.375C134.733 67.7614 137.949 66.9545 141.699 66.9545C146.381 66.9545 150.21 68.4205 153.188 71.3523C156.165 74.2614 157.653 78.7955 157.653 84.9545V120H149.608V84.9545C149.608 81.0909 148.551 78.3295 146.438 76.6705C144.324 75.0114 141.835 74.1818 138.972 74.1818C135.29 74.1818 132.438 75.2955 130.415 77.5227C128.392 79.7273 127.381 82.5227 127.381 85.9091V120H119.199V84.1364C119.199 81.1591 118.233 78.7614 116.301 76.9432C114.369 75.1023 111.881 74.1818 108.835 74.1818C106.744 74.1818 104.79 74.7386 102.972 75.8523C101.176 76.9659 99.7216 78.5114 98.608 80.4886C97.517 82.4432 96.9716 84.7045 96.9716 87.2727V120H88.9261Z" fill="black"/>
<path d="M48 143H78V173H48V143Z" fill="white"/>
<rect x="119" y="143" width="30" height="30" fill="white"/>
<path d="M112.061 159.061C112.646 158.475 112.646 157.525 112.061 156.939L102.515 147.393C101.929 146.808 100.979 146.808 100.393 147.393C99.8076 147.979 99.8076 148.929 100.393 149.515L108.879 158L100.393 166.485C99.8076 167.071 99.8076 168.021 100.393 168.607C100.979 169.192 101.929 169.192 102.515 168.607L112.061 159.061ZM86 159.5H111V156.5H86V159.5Z" fill="black"/>
</svg>
