<svg width="200" height="200" viewBox="0 0 200 200" fill="none" xmlns="http://www.w3.org/2000/svg">
<rect width="200" height="200" fill="#F078F2"/>
<line x1="49.9973" y1="97.0103" x2="149.997" y2="97.0103" stroke="white" stroke-width="5"/>
<rect x="110.5" y="115.5" width="49" height="49" fill="white" stroke="white"/>
<path d="M64.1637 151.341C62.8001 151.341 61.5962 150.996 60.5522 150.308C59.5082 149.612 58.6914 148.631 58.1019 147.367C57.5124 146.096 57.2177 144.594 57.2177 142.861C57.2177 141.142 57.5124 139.651 58.1019 138.386C58.6914 137.122 59.5117 136.146 60.5629 135.457C61.614 134.768 62.8285 134.423 64.2063 134.423C65.2717 134.423 66.1133 134.601 66.7312 134.956C67.3562 135.304 67.832 135.702 68.1587 136.149C68.4925 136.589 68.7518 136.952 68.9364 137.236H69.1495V129.182H71.6637V151H69.2347V148.486H68.9364C68.7518 148.784 68.489 149.161 68.1481 149.615C67.8072 150.062 67.3207 150.464 66.6886 150.819C66.0565 151.167 65.2148 151.341 64.1637 151.341ZM64.5046 149.082C65.5131 149.082 66.3654 148.82 67.0614 148.294C67.7575 147.761 68.2866 147.026 68.6488 146.089C69.011 145.144 69.1921 144.054 69.1921 142.818C69.1921 141.597 69.0146 140.528 68.6594 139.612C68.3043 138.688 67.7788 137.971 67.0827 137.46C66.3867 136.941 65.5273 136.682 64.5046 136.682C63.4393 136.682 62.5515 136.955 61.8413 137.502C61.1381 138.042 60.609 138.777 60.2539 139.707C59.9059 140.631 59.7319 141.668 59.7319 142.818C59.7319 143.983 59.9094 145.041 60.2646 145.993C60.6268 146.937 61.1594 147.69 61.8626 148.251C62.5728 148.805 63.4535 149.082 64.5046 149.082Z" fill="black"/>
<path d="M82.1765 136V134.082L89.3782 126.199C90.2234 125.276 90.9194 124.473 91.4663 123.791C92.0131 123.102 92.418 122.456 92.6808 121.852C92.9506 121.241 93.0856 120.602 93.0856 119.935C93.0856 119.168 92.9009 118.504 92.5316 117.942C92.1694 117.381 91.6722 116.948 91.0401 116.643C90.408 116.337 89.6978 116.185 88.9094 116.185C88.0714 116.185 87.3398 116.359 86.7148 116.707C86.0969 117.048 85.6175 117.527 85.2766 118.145C84.9428 118.763 84.7759 119.487 84.7759 120.318H82.2617C82.2617 119.04 82.5565 117.918 83.146 116.952C83.7354 115.986 84.538 115.233 85.5536 114.693C86.5763 114.153 87.7234 113.884 88.9947 113.884C90.2731 113.884 91.4059 114.153 92.3931 114.693C93.3803 115.233 94.1545 115.961 94.7156 116.877C95.2766 117.793 95.5572 118.812 95.5572 119.935C95.5572 120.737 95.4116 121.522 95.1204 122.289C94.8363 123.049 94.3391 123.898 93.6289 124.835C92.9258 125.766 91.9492 126.902 90.6992 128.244L85.7987 133.486V133.656H95.9407V136H82.1765Z" fill="black"/>
<path d="M99.1637 67.3409C97.8001 67.3409 96.5962 66.9964 95.5522 66.3075C94.5082 65.6115 93.6914 64.6314 93.1019 63.3672C92.5124 62.0959 92.2177 60.5938 92.2177 58.8608C92.2177 57.142 92.5124 55.6506 93.1019 54.3864C93.6914 53.1222 94.5117 52.1456 95.5629 51.4567C96.614 50.7678 97.8285 50.4233 99.2063 50.4233C100.272 50.4233 101.113 50.6009 101.731 50.956C102.356 51.304 102.832 51.7017 103.159 52.1491C103.493 52.5895 103.752 52.9517 103.936 53.2358H104.15V45.1818H106.664V67H104.235V64.4858H103.936C103.752 64.7841 103.489 65.1605 103.148 65.6151C102.807 66.0625 102.321 66.4638 101.689 66.8189C101.056 67.1669 100.215 67.3409 99.1637 67.3409ZM99.5046 65.0824C100.513 65.0824 101.365 64.8196 102.061 64.294C102.757 63.7614 103.287 63.0263 103.649 62.0888C104.011 61.1442 104.192 60.054 104.192 58.8182C104.192 57.5966 104.015 56.5277 103.659 55.6115C103.304 54.6882 102.779 53.9709 102.083 53.4595C101.387 52.9411 100.527 52.6818 99.5046 52.6818C98.4393 52.6818 97.5515 52.9553 96.8413 53.5021C96.1381 54.0419 95.609 54.777 95.2539 55.7074C94.9059 56.6307 94.7319 57.6676 94.7319 58.8182C94.7319 59.983 94.9094 61.0412 95.2646 61.9929C95.6268 62.9375 96.1594 63.6903 96.8626 64.2514C97.5728 64.8054 98.4535 65.0824 99.5046 65.0824Z" fill="black"/>
<path d="M117.176 52V50.0824L124.378 42.1989C125.223 41.2756 125.919 40.473 126.466 39.7912C127.013 39.1023 127.418 38.456 127.681 37.8523C127.951 37.2415 128.086 36.6023 128.086 35.9347C128.086 35.1676 127.901 34.5036 127.532 33.9425C127.169 33.3814 126.672 32.9482 126.04 32.6428C125.408 32.3374 124.698 32.1847 123.909 32.1847C123.071 32.1847 122.34 32.3587 121.715 32.7067C121.097 33.0476 120.618 33.527 120.277 34.1449C119.943 34.7628 119.776 35.4872 119.776 36.3182H117.262C117.262 35.0398 117.556 33.9176 118.146 32.9517C118.735 31.9858 119.538 31.233 120.554 30.6932C121.576 30.1534 122.723 29.8835 123.995 29.8835C125.273 29.8835 126.406 30.1534 127.393 30.6932C128.38 31.233 129.154 31.9609 129.716 32.8771C130.277 33.7933 130.557 34.8125 130.557 35.9347C130.557 36.7372 130.412 37.522 130.12 38.2891C129.836 39.049 129.339 39.8977 128.629 40.8352C127.926 41.7656 126.949 42.902 125.699 44.2443L120.799 49.4858V49.6562H130.941V52H117.176Z" fill="black"/>
</svg>
