<svg width="200" height="200" viewBox="0 0 200 200" fill="none" xmlns="http://www.w3.org/2000/svg">
<rect width="200" height="200" fill="#F078F2"/>
<line x1="49.9973" y1="97.0103" x2="149.997" y2="97.0103" stroke="white" stroke-width="5"/>
<rect x="90.5" y="115.5" width="49" height="49" fill="white" stroke="white"/>
<path d="M68.4801 151.341C67.1165 151.341 65.9126 150.996 64.8686 150.308C63.8246 149.612 63.0078 148.631 62.4183 147.367C61.8288 146.096 61.5341 144.594 61.5341 142.861C61.5341 141.142 61.8288 139.651 62.4183 138.386C63.0078 137.122 63.8281 136.146 64.8793 135.457C65.9304 134.768 67.1449 134.423 68.5227 134.423C69.5881 134.423 70.4297 134.601 71.0476 134.956C71.6726 135.304 72.1484 135.702 72.4751 136.149C72.8089 136.589 73.0682 136.952 73.2528 137.236H73.4659V129.182H75.9801V151H73.5511V148.486H73.2528C73.0682 148.784 72.8054 149.161 72.4645 149.615C72.1236 150.062 71.6371 150.464 71.005 150.819C70.3729 151.167 69.5313 151.341 68.4801 151.341ZM68.821 149.082C69.8295 149.082 70.6818 148.82 71.3778 148.294C72.0739 147.761 72.603 147.026 72.9652 146.089C73.3274 145.144 73.5085 144.054 73.5085 142.818C73.5085 141.597 73.331 140.528 72.9759 139.612C72.6207 138.688 72.0952 137.971 71.3991 137.46C70.7031 136.941 69.8438 136.682 68.821 136.682C67.7557 136.682 66.8679 136.955 66.1577 137.502C65.4545 138.042 64.9254 138.777 64.5703 139.707C64.2223 140.631 64.0483 141.668 64.0483 142.818C64.0483 143.983 64.2259 145.041 64.581 145.993C64.9432 146.937 65.4759 147.69 66.179 148.251C66.8892 148.805 67.7699 149.082 68.821 149.082Z" fill="black"/>
<path d="M99.1637 67.3409C97.8001 67.3409 96.5962 66.9964 95.5522 66.3075C94.5082 65.6115 93.6914 64.6314 93.1019 63.3672C92.5124 62.0959 92.2177 60.5938 92.2177 58.8608C92.2177 57.142 92.5124 55.6506 93.1019 54.3864C93.6914 53.1222 94.5117 52.1456 95.5629 51.4567C96.614 50.7678 97.8285 50.4233 99.2063 50.4233C100.272 50.4233 101.113 50.6009 101.731 50.956C102.356 51.304 102.832 51.7017 103.159 52.1491C103.493 52.5895 103.752 52.9517 103.936 53.2358H104.15V45.1818H106.664V67H104.235V64.4858H103.936C103.752 64.7841 103.489 65.1605 103.148 65.6151C102.807 66.0625 102.321 66.4638 101.689 66.8189C101.056 67.1669 100.215 67.3409 99.1637 67.3409ZM99.5046 65.0824C100.513 65.0824 101.365 64.8196 102.061 64.294C102.757 63.7614 103.287 63.0263 103.649 62.0888C104.011 61.1442 104.192 60.054 104.192 58.8182C104.192 57.5966 104.015 56.5277 103.659 55.6115C103.304 54.6882 102.779 53.9709 102.083 53.4595C101.387 52.9411 100.527 52.6818 99.5046 52.6818C98.4393 52.6818 97.5515 52.9553 96.8413 53.5021C96.1381 54.0419 95.609 54.777 95.2539 55.7074C94.9059 56.6307 94.7319 57.6676 94.7319 58.8182C94.7319 59.983 94.9094 61.0412 95.2646 61.9929C95.6268 62.9375 96.1594 63.6903 96.8626 64.2514C97.5728 64.8054 98.4535 65.0824 99.5046 65.0824Z" fill="black"/>
</svg>
