<svg width="200" height="200" viewBox="0 0 200 200" fill="none" xmlns="http://www.w3.org/2000/svg">
<rect width="200" height="200" fill="#F078F2"/>
<rect x="107" y="75" width="50" height="50" fill="white"/>
<path d="M68.9361 130.182C68.9361 135.114 67.6747 138.886 65.152 141.5C62.652 144.136 59.027 145.455 54.277 145.455C53.3224 145.455 52.402 145.386 51.5156 145.25C50.6065 145.114 49.7088 144.909 48.8224 144.636L49.6406 137.409C50.1179 137.545 50.9134 137.67 52.027 137.784C53.1179 137.898 53.8679 137.955 54.277 137.955C56.5497 137.955 58.2202 137.318 59.2884 136.045C60.3565 134.795 60.8906 132.841 60.8906 130.182V68.8864C60.8906 63.4318 62.2202 59.25 64.8793 56.3409C67.5384 53.4318 71.3679 51.9773 76.3679 51.9773C77.527 51.9773 78.6634 52.0682 79.777 52.25C80.8906 52.4318 82.027 52.6591 83.1861 52.9318L82.0952 59.8864C81.5497 59.75 80.6747 59.6477 79.4702 59.5795C78.2884 59.5114 77.2543 59.4773 76.3679 59.4773C73.8224 59.4773 71.9474 60.2386 70.7429 61.7614C69.5384 63.2841 68.9361 65.6591 68.9361 68.8864V130.182Z" fill="black"/>
</svg>
