<svg width="200" height="200" viewBox="0 0 200 200" fill="none" xmlns="http://www.w3.org/2000/svg">
<rect width="200" height="200" fill="#F078F2"/>
<rect x="125" y="75" width="50" height="50" fill="white"/>
<rect x="80" y="40" width="30" height="30" fill="white"/>
<rect x="80" y="130" width="30" height="30" fill="white"/>
<path d="M52.9361 130.182C52.9361 135.114 51.6747 138.886 49.152 141.5C46.652 144.136 43.027 145.455 38.277 145.455C37.3224 145.455 36.402 145.386 35.5156 145.25C34.6065 145.114 33.7088 144.909 32.8224 144.636L33.6406 137.409C34.1179 137.545 34.9134 137.67 36.027 137.784C37.1179 137.898 37.8679 137.955 38.277 137.955C40.5497 137.955 42.2202 137.318 43.2884 136.045C44.3565 134.795 44.8906 132.841 44.8906 130.182V68.8864C44.8906 63.4318 46.2202 59.25 48.8793 56.3409C51.5384 53.4318 55.3679 51.9773 60.3679 51.9773C61.527 51.9773 62.6634 52.0682 63.777 52.25C64.8906 52.4318 66.027 52.6591 67.1861 52.9318L66.0952 59.8864C65.5497 59.75 64.6747 59.6477 63.4702 59.5795C62.2884 59.5114 61.2543 59.4773 60.3679 59.4773C57.8224 59.4773 55.9474 60.2386 54.7429 61.7614C53.5384 63.2841 52.9361 65.6591 52.9361 68.8864V130.182Z" fill="black"/>
</svg>
