<svg width="31" height="31" viewBox="0 0 31 31" fill="none" xmlns="http://www.w3.org/2000/svg">
<path d="M29.6507 26.6621C29.8473 26.8581 30.0034 27.0909 30.1098 27.3473C30.2163 27.6037 30.2711 27.8786 30.2711 28.1562C30.2711 28.4339 30.2163 28.7088 30.1098 28.9652C30.0034 29.2216 29.8473 29.4544 29.6507 29.6504C29.2526 30.0433 28.7158 30.2636 28.1565 30.2636C27.5973 30.2636 27.0605 30.0433 26.6624 29.6504L15.5003 18.4883L4.33819 29.6504C3.94013 30.0433 3.40334 30.2636 2.84405 30.2636C2.28475 30.2636 1.74796 30.0433 1.34991 29.6504C1.15326 29.4544 0.997225 29.2216 0.890761 28.9652C0.784296 28.7088 0.729492 28.4339 0.729492 28.1562C0.729492 27.8786 0.784296 27.6037 0.890761 27.3473C0.997225 27.0909 1.15326 26.8581 1.34991 26.6621L12.512 15.5L1.34991 4.33789C0.953635 3.94162 0.731012 3.40416 0.731012 2.84375C0.731012 2.56626 0.785668 2.29149 0.891858 2.03512C0.998048 1.77876 1.15369 1.54582 1.34991 1.34961C1.54612 1.15339 1.77906 0.997748 2.03542 0.891558C2.29179 0.785368 2.56656 0.730713 2.84405 0.730713C3.40446 0.730713 3.94192 0.953336 4.33819 1.34961L15.5003 12.5117L26.6624 1.34961C27.0587 0.953336 27.5961 0.730713 28.1565 0.730713C28.717 0.730713 29.2544 0.953336 29.6507 1.34961C30.047 1.74588 30.2696 2.28334 30.2696 2.84375C30.2696 3.40416 30.047 3.94162 29.6507 4.33789L18.4886 15.5L29.6507 26.6621Z" fill="black"/>
</svg>
